<svg width="70" height="70" viewBox="0 0 70 70" fill="none" xmlns="http://www.w3.org/2000/svg"><g clip-path="url(#clip0_766_2183)"><path fill-rule="evenodd" clip-rule="evenodd" d="M22.3873 3.27882C30.3322 -1.16442 40.0979 -1.08676 47.9684 3.48225C55.7614 8.14432 60.4978 16.4647 60.4537 25.4152C60.2723 34.3069 55.1935 42.6651 48.8451 49.1264C45.1809 52.8725 41.0819 56.185 36.6318 58.9963C36.1735 59.2513 35.6714 59.4221 35.1505 59.5001C34.6491 59.4796 34.1608 59.337 33.7296 59.0852C26.9357 54.8611 20.9753 49.4692 16.1353 43.169C12.0853 37.9099 9.78433 31.5561 9.54493 24.9706C9.53967 16.003 14.4423 7.72206 22.3873 3.27882ZM26.9783 28.6819C28.3148 31.8531 31.4693 33.9216 34.9691 33.9216C37.2618 33.9374 39.4658 33.0535 41.0899 31.4668C42.714 29.8801 43.6232 27.7224 43.6151 25.4745C43.6273 22.0432 41.5286 18.9432 38.2988 17.6218C35.069 16.3004 31.3452 17.0183 28.8662 19.4403C26.3872 21.8623 25.6419 25.5107 26.9783 28.6819Z" fill="#316DC2"/><path d="M53.1815 66.5001C53.1815 68.4331 45.0412 70.0001 34.9996 70.0001C24.958 70.0001 16.8177 68.4331 16.8177 66.5001C16.8177 64.5671 24.958 63.0001 34.9996 63.0001C45.0412 63.0001 53.1815 64.5671 53.1815 66.5001Z" fill="#316DC2"/></g><defs><clipPath id="clip0_766_2183"><rect width="70" height="70" fill="white"/></clipPath></defs></svg>