<svg width="16" height="16" viewBox="0 0 16 16" fill="none" xmlns="http://www.w3.org/2000/svg"><path d="M8.00071 2.42035C8.96283 2.42035 9.74528 3.18736 9.74528 4.1305C9.74528 5.0708 8.96283 5.83781 8.00071 5.83781C7.03859 5.83781 6.25614 5.0708 6.25614 4.1305C6.25614 3.18736 7.03859 2.42035 8.00071 2.42035ZM8.00071 8.25816C10.3249 8.25816 12.2143 6.40597 12.2143 4.1305C12.2143 1.85219 10.3249 0 8.00071 0C5.67654 0 3.78997 1.85219 3.78997 4.1305C3.78997 6.40597 5.67654 8.25816 8.00071 8.25816ZM9.70471 11.6273C10.5625 11.4342 11.3884 11.1018 12.1506 10.6331C12.7273 10.278 12.9012 9.53083 12.5389 8.96551C12.1738 8.39735 11.4145 8.22691 10.8349 8.58485C9.11063 9.6473 6.89079 9.6473 5.16361 8.58485C4.58691 8.22691 3.82475 8.39735 3.4625 8.96551C3.10026 9.53083 3.27413 10.278 3.85083 10.6331C4.61299 11.1018 5.43891 11.4342 6.29671 11.6273L3.94067 13.934C3.4596 14.4056 3.4596 15.1726 3.94067 15.6442C4.18409 15.88 4.49707 15.9993 4.81295 15.9993C5.12883 15.9993 5.44471 15.88 5.68814 15.6442L8.00071 13.3772L10.3162 15.6442C10.7972 16.1186 11.5768 16.1186 12.0608 15.6442C12.5418 15.1726 12.5418 14.4056 12.0608 13.934L9.70471 11.6273Z" fill="white"/></svg>