<svg width="28" height="28" viewBox="0 0 28 28" fill="none" xmlns="http://www.w3.org/2000/svg">
<path d="M0 27.8701V21.633H0.676259L3.51154 26.8782L6.33178 21.633H7.01806V27.8657H6.31676V23.0536L3.74697 27.8701H3.27109L0.706315 23.0536V27.8701H0Z" fill="#316DC2"/>
<path d="M18.2848 28C17.7805 28 17.3264 27.9278 16.9223 27.7834C16.5215 27.6362 16.1892 27.4283 15.9254 27.1597C15.6649 26.8912 15.4946 26.5721 15.4145 26.2025L16.1659 26.0942C16.2861 26.4985 16.5399 26.8161 16.9273 27.0471C17.3147 27.2752 17.7772 27.3893 18.3149 27.3893C18.6689 27.3893 18.9861 27.3416 19.2666 27.2464C19.5472 27.1482 19.7676 27.0096 19.9279 26.8305C20.0882 26.6515 20.1683 26.4393 20.1683 26.1938C20.1683 26.0321 20.1349 25.895 20.0681 25.7824C20.0013 25.6669 19.9128 25.5716 19.8026 25.4965C19.6924 25.4214 19.5722 25.3593 19.442 25.3103C19.3117 25.2583 19.1848 25.2164 19.0613 25.1846L17.2329 24.7125C17.0124 24.6577 16.8087 24.5884 16.6217 24.5046C16.4347 24.418 16.2711 24.3155 16.1308 24.1971C15.9939 24.0758 15.887 23.9343 15.8102 23.7726C15.7334 23.6109 15.695 23.4261 15.695 23.2182C15.695 22.8659 15.8019 22.5613 16.0156 22.3043C16.2293 22.0473 16.5215 21.8495 16.8922 21.7109C17.2629 21.5723 17.6854 21.5045 18.1596 21.5074C18.6405 21.5074 19.0696 21.581 19.447 21.7283C19.8277 21.8755 20.1416 22.0863 20.3887 22.3606C20.6359 22.6321 20.7995 22.954 20.8796 23.3265L20.1082 23.4478C20.0581 23.1764 19.9429 22.941 19.7626 22.7418C19.5822 22.5425 19.3518 22.3895 19.0713 22.2827C18.7941 22.1729 18.4885 22.1166 18.1546 22.1137C17.8306 22.1137 17.5418 22.1614 17.288 22.2567C17.0375 22.3491 16.8388 22.4761 16.6918 22.6378C16.5449 22.7995 16.4714 22.9843 16.4714 23.1922C16.4714 23.403 16.5382 23.5719 16.6718 23.699C16.8087 23.8261 16.9757 23.9257 17.1727 23.9979C17.3731 24.0701 17.5668 24.1292 17.7538 24.1754L19.1665 24.5349C19.3134 24.5696 19.4854 24.6201 19.6824 24.6865C19.8828 24.7501 20.0765 24.8425 20.2635 24.9637C20.4538 25.0821 20.6108 25.2381 20.7344 25.4315C20.8579 25.625 20.9197 25.8704 20.9197 26.1679C20.9197 26.4566 20.8529 26.715 20.7193 26.9432C20.5891 27.1713 20.4038 27.3633 20.1633 27.5192C19.9262 27.6751 19.6473 27.7935 19.3267 27.8744C19.0095 27.9581 18.6622 28 18.2848 28Z" fill="#316DC2"/>
<path fill-rule="evenodd" clip-rule="evenodd" d="M11.0087 21.633L8.52407 27.8701H9.29049L9.89298 26.3584H13.0974L13.7037 27.8701H14.4701L11.9855 21.633H11.0087ZM12.8576 25.7607L11.49 22.3514L10.1312 25.7607H9.63113V26.3584H9.89298L10.1312 25.7607H12.8576Z" fill="#316DC2"/>
<path d="M9.63113 25.7607V26.3584H9.89298L10.1312 25.7607H9.63113Z" fill="#316DC2"/>
<path fill-rule="evenodd" clip-rule="evenodd" d="M24.5386 21.633L22.0539 27.8701H22.8204L23.4229 26.3584H26.6272L27.2336 27.8701H28L25.5154 21.633H24.5386ZM26.3875 25.7607L25.0199 22.3514L23.6611 25.7607H23.161V26.3584H23.4229L23.6611 25.7607H26.3875Z" fill="#316DC2"/>
<path d="M23.161 25.7607V26.3584H23.4229L23.6611 25.7607H23.161Z" fill="#316DC2"/>
<path d="M5.81254 5.47597C5.29087 5.85346 4.98512 6.6529 5.56148 7.60874C6.13783 8.56458 14.372 15.0165 14.6739 15.1957C14.9758 15.375 15.2779 15.4048 16.0461 14.7775C16.8148 14.1502 23.2362 9.24971 23.4019 9.10231C23.6656 8.86779 23.7313 8.29579 23.4019 8.02685C23.4019 8.02685 15.6225 13.941 15.3677 14.1801C15.1132 14.4191 14.7169 14.0308 14.7913 13.5231C14.866 13.0152 14.921 12.9554 15.9091 12.1788C16.8972 11.4021 22.4993 7.08887 22.7535 6.89821C23.0414 6.68214 23.0483 6.30052 22.5768 5.96305C21.9214 5.49384 14.8379 0.376276 14.601 0.19713C14.3634 0.0178359 14.0345 -0.145063 13.5406 0.213377C13.0466 0.571818 6.77091 4.78227 5.81254 5.47597Z" fill="#316DC2"/>
<path d="M14.6739 15.8252C14.4757 15.7075 10.8629 12.8896 8.23872 10.6955V15.2702C8.23669 18.6096 17.4981 20.3938 20.5663 16.2887V11.9163C18.6815 13.3631 16.4767 15.0556 16.0461 15.407C15.2779 16.0342 14.9758 16.0044 14.6739 15.8252Z" fill="#316DC2"/>
<path d="M18.593 10.8091C18.593 10.8091 19.97 11.5124 20.068 14.3426L19.4009 14.1558L18.8671 15.3076C18.6413 12.2085 17.4116 11.7591 17.4116 11.7591L18.593 10.8091Z" fill="#98B8E6"/>
</svg>
