<svg width="16" height="16" viewBox="0 0 16 16" fill="none" xmlns="http://www.w3.org/2000/svg">
<path d="M9.41405 0.363525C8.94762 0.363525 8.50993 0.611969 8.22919 0.97025C7.94845 1.32853 7.79371 1.76527 7.68097 2.22554C7.50191 2.96564 7.44665 3.78681 7.43339 4.52691C6.12252 4.61844 4.93545 5.02641 3.94954 5.65668C3.54942 5.30363 3.06752 5.10749 2.60551 5.11272C2.0794 5.11795 1.57981 5.35593 1.20844 5.84497C0.498845 6.77859 0.580636 8.30587 1.40297 9.21334C1.35212 9.49317 1.31454 9.78084 1.31454 10.0711C1.31454 13.1466 4.30765 15.6363 7.99929 15.6363C11.6909 15.6363 14.684 13.144 14.684 10.0711C14.684 9.78084 14.6465 9.49317 14.5956 9.21334C15.4179 8.30587 15.4997 6.77859 14.7901 5.84497C14.4188 5.35593 13.9192 5.11795 13.3931 5.11272C12.9311 5.10749 12.4492 5.30363 12.049 5.65668C11.0676 5.02903 9.88711 4.62106 8.58288 4.52691C8.60056 3.84435 8.64699 3.13563 8.77741 2.60213C8.8592 2.26739 8.95646 2.02417 9.06036 1.8908C9.16426 1.75742 9.23942 1.7025 9.41405 1.7025C9.79206 1.7025 9.84069 1.83065 10.0684 2.14186C10.1833 2.29877 10.316 2.49491 10.5282 2.68582C10.7404 2.87673 11.0543 3.04148 11.3947 3.04148V1.7025C11.2997 1.7025 11.282 1.69989 11.2179 1.63974C11.1538 1.57959 11.0653 1.44098 10.9349 1.26315C10.6741 0.904871 10.1679 0.363525 9.41405 0.363525ZM13.0924 0.489055C12.2126 0.489055 11.5008 1.33115 11.5008 2.37199C11.5008 3.41284 12.2126 4.25493 13.0924 4.25493C13.9722 4.25493 14.684 3.41284 14.684 2.37199C14.684 1.33115 13.9722 0.489055 13.0924 0.489055ZM13.0924 1.15854C13.6583 1.15854 14.1181 1.7025 14.1181 2.37199C14.1181 3.04148 13.6583 3.58544 13.0924 3.58544C12.5265 3.58544 12.0667 3.04148 12.0667 2.37199C12.0667 1.7025 12.5265 1.15854 13.0924 1.15854ZM7.99929 5.57299C11.1317 5.57299 13.7821 7.63638 13.7821 10.0711C13.7821 12.5085 11.1317 14.5693 7.99929 14.5693C4.86692 14.5693 2.21645 12.5085 2.21645 10.0711C2.21645 7.63638 4.86692 5.57299 7.99929 5.57299ZM2.6232 6.17972C2.78015 6.18233 2.94373 6.22417 3.10068 6.30524C2.53256 6.81521 2.08161 7.40101 1.77434 8.06265C1.56213 7.54485 1.6196 6.89889 1.88045 6.5563C2.07056 6.30524 2.33361 6.1771 2.6232 6.17972ZM13.3754 6.17972C13.665 6.1771 13.928 6.30524 14.1181 6.5563C14.379 6.89889 14.4365 7.54485 14.2242 8.06265C13.917 7.40101 13.466 6.81521 12.8979 6.30524C13.0549 6.22417 13.2184 6.18233 13.3754 6.17972ZM5.73567 7.85344C5.16977 7.85344 4.70997 8.3974 4.70997 9.06689C4.70997 9.73638 5.16977 10.2803 5.73567 10.2803C6.30158 10.2803 6.76137 9.73638 6.76137 9.06689C6.76137 8.3974 6.30158 7.85344 5.73567 7.85344ZM10.2629 7.85344C9.697 7.85344 9.23721 8.3974 9.23721 9.06689C9.23721 9.73638 9.697 10.2803 10.2629 10.2803C10.8288 10.2803 11.2886 9.73638 11.2886 9.06689C11.2886 8.3974 10.8288 7.85344 10.2629 7.85344ZM5.18745 11.975C5.54777 12.8563 6.6619 13.7115 7.99929 13.7115C9.33668 13.7115 10.4685 12.8563 10.8288 11.975C10.1745 12.4745 9.14215 12.8118 7.99929 12.8118C6.85643 12.8118 5.84178 12.4745 5.18745 11.975Z" fill="white"/>
</svg>
